<mxfile host="Electron" modified="2023-12-14T14:03:23.503Z" agent="Mozilla/5.0 (Windows NT 10.0; Win64; x64) AppleWebKit/537.36 (KHTML, like Gecko) draw.io/22.1.2 Chrome/114.0.5735.289 Electron/25.9.4 Safari/537.36" etag="HP0FLhhcOtTOwpLSG3nP" version="22.1.2" type="device">
  <diagram id="_cxQmMypIHv3aaj6mm1b" name="1 oldal">
    <mxGraphModel dx="980" dy="573" grid="1" gridSize="10" guides="1" tooltips="1" connect="1" arrows="1" fold="1" page="1" pageScale="1" pageWidth="1169" pageHeight="827" background="#FFFFFF" math="0" shadow="0">
      <root>
        <mxCell id="0" />
        <mxCell id="1" parent="0" />
        <mxCell id="mNdvBTZxsKza9JUtb008-1" value="Labdarugo" style="rounded=0;whiteSpace=wrap;html=1;fillColor=#d5e8d4;strokeColor=#82b366;" parent="1" vertex="1">
          <mxGeometry x="90" y="240" width="120" height="60" as="geometry" />
        </mxCell>
        <mxCell id="mNdvBTZxsKza9JUtb008-2" value="Statisztika" style="rounded=0;whiteSpace=wrap;html=1;fillColor=#d5e8d4;strokeColor=#82b366;" parent="1" vertex="1">
          <mxGeometry x="90" y="480" width="120" height="60" as="geometry" />
        </mxCell>
        <mxCell id="mNdvBTZxsKza9JUtb008-3" value="l_stat" style="rhombus;whiteSpace=wrap;html=1;fillColor=#d5e8d4;strokeColor=#82b366;" parent="1" vertex="1">
          <mxGeometry x="110" y="350" width="80" height="80" as="geometry" />
        </mxCell>
        <mxCell id="mNdvBTZxsKza9JUtb008-8" value="StatisztikaID" style="ellipse;whiteSpace=wrap;html=1;fontStyle=4;fillColor=#d5e8d4;strokeColor=#82b366;" parent="1" vertex="1">
          <mxGeometry x="10" y="630" width="80" height="50" as="geometry" />
        </mxCell>
        <mxCell id="mNdvBTZxsKza9JUtb008-9" value="Jatekperc" style="ellipse;whiteSpace=wrap;html=1;fillColor=#d5e8d4;strokeColor=#82b366;" parent="1" vertex="1">
          <mxGeometry x="100" y="630" width="80" height="50" as="geometry" />
        </mxCell>
        <mxCell id="mNdvBTZxsKza9JUtb008-10" value="Lapok" style="ellipse;whiteSpace=wrap;html=1;fillColor=#d5e8d4;strokeColor=#82b366;" parent="1" vertex="1">
          <mxGeometry x="190" y="630" width="80" height="50" as="geometry" />
        </mxCell>
        <mxCell id="mNdvBTZxsKza9JUtb008-11" value="Sarga" style="ellipse;whiteSpace=wrap;html=1;fillColor=#d5e8d4;strokeColor=#82b366;" parent="1" vertex="1">
          <mxGeometry x="140" y="710" width="80" height="50" as="geometry" />
        </mxCell>
        <mxCell id="mNdvBTZxsKza9JUtb008-12" value="Piros" style="ellipse;whiteSpace=wrap;html=1;fillColor=#d5e8d4;strokeColor=#82b366;" parent="1" vertex="1">
          <mxGeometry x="240" y="710" width="80" height="50" as="geometry" />
        </mxCell>
        <mxCell id="mNdvBTZxsKza9JUtb008-13" value="Gol" style="ellipse;whiteSpace=wrap;html=1;fillColor=#d5e8d4;strokeColor=#82b366;" parent="1" vertex="1">
          <mxGeometry x="280" y="630" width="80" height="50" as="geometry" />
        </mxCell>
        <mxCell id="mNdvBTZxsKza9JUtb008-14" value="Golpassz" style="ellipse;whiteSpace=wrap;html=1;fillColor=#d5e8d4;strokeColor=#82b366;" parent="1" vertex="1">
          <mxGeometry x="370" y="630" width="80" height="50" as="geometry" />
        </mxCell>
        <mxCell id="mNdvBTZxsKza9JUtb008-15" value="" style="endArrow=none;html=1;rounded=0;entryX=0.5;entryY=1;entryDx=0;entryDy=0;exitX=0.5;exitY=0;exitDx=0;exitDy=0;labelBackgroundColor=#F1FAEE;strokeColor=#457B9D;fontColor=#1D3557;" parent="1" source="mNdvBTZxsKza9JUtb008-8" target="mNdvBTZxsKza9JUtb008-2" edge="1">
          <mxGeometry width="50" height="50" relative="1" as="geometry">
            <mxPoint x="400" y="650" as="sourcePoint" />
            <mxPoint x="450" y="600" as="targetPoint" />
          </mxGeometry>
        </mxCell>
        <mxCell id="mNdvBTZxsKza9JUtb008-16" value="" style="endArrow=none;html=1;rounded=0;exitX=0.5;exitY=0;exitDx=0;exitDy=0;entryX=0.5;entryY=1;entryDx=0;entryDy=0;labelBackgroundColor=#F1FAEE;strokeColor=#457B9D;fontColor=#1D3557;" parent="1" source="mNdvBTZxsKza9JUtb008-9" target="mNdvBTZxsKza9JUtb008-2" edge="1">
          <mxGeometry width="50" height="50" relative="1" as="geometry">
            <mxPoint x="60" y="640" as="sourcePoint" />
            <mxPoint x="160" y="560" as="targetPoint" />
          </mxGeometry>
        </mxCell>
        <mxCell id="mNdvBTZxsKza9JUtb008-17" value="" style="endArrow=none;html=1;rounded=0;entryX=0.5;entryY=1;entryDx=0;entryDy=0;exitX=0.5;exitY=0;exitDx=0;exitDy=0;labelBackgroundColor=#F1FAEE;strokeColor=#457B9D;fontColor=#1D3557;" parent="1" source="mNdvBTZxsKza9JUtb008-10" target="mNdvBTZxsKza9JUtb008-2" edge="1">
          <mxGeometry width="50" height="50" relative="1" as="geometry">
            <mxPoint x="70" y="650" as="sourcePoint" />
            <mxPoint x="170" y="560" as="targetPoint" />
          </mxGeometry>
        </mxCell>
        <mxCell id="mNdvBTZxsKza9JUtb008-18" value="" style="endArrow=none;html=1;rounded=0;exitX=0.5;exitY=0;exitDx=0;exitDy=0;entryX=0.5;entryY=1;entryDx=0;entryDy=0;labelBackgroundColor=#F1FAEE;strokeColor=#457B9D;fontColor=#1D3557;" parent="1" source="mNdvBTZxsKza9JUtb008-13" target="mNdvBTZxsKza9JUtb008-2" edge="1">
          <mxGeometry width="50" height="50" relative="1" as="geometry">
            <mxPoint x="80" y="660" as="sourcePoint" />
            <mxPoint x="180" y="560" as="targetPoint" />
          </mxGeometry>
        </mxCell>
        <mxCell id="mNdvBTZxsKza9JUtb008-19" value="" style="endArrow=none;html=1;rounded=0;entryX=0.5;entryY=1;entryDx=0;entryDy=0;exitX=0.5;exitY=0;exitDx=0;exitDy=0;labelBackgroundColor=#F1FAEE;strokeColor=#457B9D;fontColor=#1D3557;" parent="1" source="mNdvBTZxsKza9JUtb008-14" target="mNdvBTZxsKza9JUtb008-2" edge="1">
          <mxGeometry width="50" height="50" relative="1" as="geometry">
            <mxPoint x="90" y="670" as="sourcePoint" />
            <mxPoint x="190" y="580" as="targetPoint" />
          </mxGeometry>
        </mxCell>
        <mxCell id="mNdvBTZxsKza9JUtb008-20" value="" style="endArrow=none;html=1;rounded=0;entryX=0.5;entryY=1;entryDx=0;entryDy=0;exitX=0.5;exitY=0;exitDx=0;exitDy=0;labelBackgroundColor=#F1FAEE;strokeColor=#457B9D;fontColor=#1D3557;" parent="1" source="mNdvBTZxsKza9JUtb008-11" target="mNdvBTZxsKza9JUtb008-10" edge="1">
          <mxGeometry width="50" height="50" relative="1" as="geometry">
            <mxPoint x="100" y="680" as="sourcePoint" />
            <mxPoint x="200" y="590" as="targetPoint" />
          </mxGeometry>
        </mxCell>
        <mxCell id="mNdvBTZxsKza9JUtb008-21" value="" style="endArrow=none;html=1;rounded=0;entryX=0.5;entryY=1;entryDx=0;entryDy=0;exitX=0.5;exitY=0;exitDx=0;exitDy=0;labelBackgroundColor=#F1FAEE;strokeColor=#457B9D;fontColor=#1D3557;" parent="1" source="mNdvBTZxsKza9JUtb008-12" target="mNdvBTZxsKza9JUtb008-10" edge="1">
          <mxGeometry width="50" height="50" relative="1" as="geometry">
            <mxPoint x="110" y="690" as="sourcePoint" />
            <mxPoint x="210" y="600" as="targetPoint" />
          </mxGeometry>
        </mxCell>
        <mxCell id="mNdvBTZxsKza9JUtb008-22" value="LabdarugoID" style="ellipse;whiteSpace=wrap;html=1;fontStyle=4;fillColor=#d5e8d4;strokeColor=#82b366;" parent="1" vertex="1">
          <mxGeometry x="10" y="110" width="80" height="50" as="geometry" />
        </mxCell>
        <mxCell id="mNdvBTZxsKza9JUtb008-23" value="Lnev" style="ellipse;whiteSpace=wrap;html=1;fillColor=#d5e8d4;strokeColor=#82b366;" parent="1" vertex="1">
          <mxGeometry x="100" y="110" width="80" height="50" as="geometry" />
        </mxCell>
        <mxCell id="mNdvBTZxsKza9JUtb008-24" value="Kor" style="ellipse;whiteSpace=wrap;html=1;fillColor=#d5e8d4;strokeColor=#82b366;" parent="1" vertex="1">
          <mxGeometry x="190" y="110" width="80" height="50" as="geometry" />
        </mxCell>
        <mxCell id="mNdvBTZxsKza9JUtb008-25" value="Poszt" style="ellipse;whiteSpace=wrap;html=1;fillColor=#d5e8d4;strokeColor=#82b366;" parent="1" vertex="1">
          <mxGeometry x="280" y="110" width="80" height="50" as="geometry" />
        </mxCell>
        <mxCell id="mNdvBTZxsKza9JUtb008-26" value="" style="endArrow=none;html=1;rounded=0;entryX=0.5;entryY=1;entryDx=0;entryDy=0;exitX=0.5;exitY=0;exitDx=0;exitDy=0;labelBackgroundColor=#F1FAEE;strokeColor=#457B9D;fontColor=#1D3557;" parent="1" source="mNdvBTZxsKza9JUtb008-1" target="mNdvBTZxsKza9JUtb008-22" edge="1">
          <mxGeometry width="50" height="50" relative="1" as="geometry">
            <mxPoint x="400" y="210" as="sourcePoint" />
            <mxPoint x="450" y="160" as="targetPoint" />
          </mxGeometry>
        </mxCell>
        <mxCell id="mNdvBTZxsKza9JUtb008-27" value="" style="endArrow=none;html=1;rounded=0;entryX=0.5;entryY=1;entryDx=0;entryDy=0;exitX=0.5;exitY=0;exitDx=0;exitDy=0;labelBackgroundColor=#F1FAEE;strokeColor=#457B9D;fontColor=#1D3557;" parent="1" source="mNdvBTZxsKza9JUtb008-1" target="mNdvBTZxsKza9JUtb008-23" edge="1">
          <mxGeometry width="50" height="50" relative="1" as="geometry">
            <mxPoint x="160" y="250" as="sourcePoint" />
            <mxPoint x="60" y="170" as="targetPoint" />
          </mxGeometry>
        </mxCell>
        <mxCell id="mNdvBTZxsKza9JUtb008-28" value="" style="endArrow=none;html=1;rounded=0;entryX=0.5;entryY=1;entryDx=0;entryDy=0;exitX=0.5;exitY=0;exitDx=0;exitDy=0;labelBackgroundColor=#F1FAEE;strokeColor=#457B9D;fontColor=#1D3557;" parent="1" source="mNdvBTZxsKza9JUtb008-1" target="mNdvBTZxsKza9JUtb008-24" edge="1">
          <mxGeometry width="50" height="50" relative="1" as="geometry">
            <mxPoint x="170" y="260" as="sourcePoint" />
            <mxPoint x="70" y="180" as="targetPoint" />
          </mxGeometry>
        </mxCell>
        <mxCell id="mNdvBTZxsKza9JUtb008-29" value="" style="endArrow=none;html=1;rounded=0;entryX=0.5;entryY=1;entryDx=0;entryDy=0;exitX=0.5;exitY=0;exitDx=0;exitDy=0;labelBackgroundColor=#F1FAEE;strokeColor=#457B9D;fontColor=#1D3557;" parent="1" source="mNdvBTZxsKza9JUtb008-1" target="mNdvBTZxsKza9JUtb008-25" edge="1">
          <mxGeometry width="50" height="50" relative="1" as="geometry">
            <mxPoint x="180" y="270" as="sourcePoint" />
            <mxPoint x="80" y="190" as="targetPoint" />
          </mxGeometry>
        </mxCell>
        <mxCell id="mNdvBTZxsKza9JUtb008-31" value="cs_l" style="rhombus;whiteSpace=wrap;html=1;fillColor=#d5e8d4;strokeColor=#82b366;" parent="1" vertex="1">
          <mxGeometry x="370" y="230" width="80" height="80" as="geometry" />
        </mxCell>
        <mxCell id="mNdvBTZxsKza9JUtb008-32" value="" style="endArrow=none;html=1;rounded=0;exitX=1;exitY=0.5;exitDx=0;exitDy=0;entryX=0;entryY=0.5;entryDx=0;entryDy=0;labelBackgroundColor=#F1FAEE;strokeColor=#457B9D;fontColor=#1D3557;" parent="1" source="mNdvBTZxsKza9JUtb008-1" target="mNdvBTZxsKza9JUtb008-31" edge="1">
          <mxGeometry width="50" height="50" relative="1" as="geometry">
            <mxPoint x="400" y="310" as="sourcePoint" />
            <mxPoint x="450" y="260" as="targetPoint" />
          </mxGeometry>
        </mxCell>
        <mxCell id="mNdvBTZxsKza9JUtb008-34" value="Csapat" style="rounded=0;whiteSpace=wrap;html=1;fillColor=#d5e8d4;strokeColor=#82b366;" parent="1" vertex="1">
          <mxGeometry x="610" y="240" width="120" height="60" as="geometry" />
        </mxCell>
        <mxCell id="mNdvBTZxsKza9JUtb008-37" value="CsapatID" style="ellipse;whiteSpace=wrap;html=1;fontStyle=4;fillColor=#d5e8d4;strokeColor=#82b366;" parent="1" vertex="1">
          <mxGeometry x="530" y="110" width="80" height="50" as="geometry" />
        </mxCell>
        <mxCell id="mNdvBTZxsKza9JUtb008-38" value="Csnev" style="ellipse;whiteSpace=wrap;html=1;fontStyle=0;fillColor=#d5e8d4;strokeColor=#82b366;" parent="1" vertex="1">
          <mxGeometry x="620" y="110" width="80" height="50" as="geometry" />
        </mxCell>
        <mxCell id="mNdvBTZxsKza9JUtb008-39" value="Edzo" style="ellipse;whiteSpace=wrap;html=1;fontStyle=0;fillColor=#d5e8d4;strokeColor=#82b366;" parent="1" vertex="1">
          <mxGeometry x="710" y="110" width="80" height="50" as="geometry" />
        </mxCell>
        <mxCell id="mNdvBTZxsKza9JUtb008-40" value="Liga" style="ellipse;whiteSpace=wrap;html=1;fontStyle=0;fillColor=#d5e8d4;strokeColor=#82b366;" parent="1" vertex="1">
          <mxGeometry x="800" y="110" width="80" height="50" as="geometry" />
        </mxCell>
        <mxCell id="mNdvBTZxsKza9JUtb008-41" value="Liga" style="ellipse;whiteSpace=wrap;html=1;fontStyle=0;fillColor=#d5e8d4;strokeColor=#82b366;" parent="1" vertex="1">
          <mxGeometry x="805" y="115" width="70" height="40" as="geometry" />
        </mxCell>
        <mxCell id="mNdvBTZxsKza9JUtb008-42" value="" style="endArrow=none;html=1;rounded=0;entryX=0.5;entryY=1;entryDx=0;entryDy=0;exitX=0.5;exitY=0;exitDx=0;exitDy=0;labelBackgroundColor=#F1FAEE;strokeColor=#457B9D;fontColor=#1D3557;" parent="1" source="mNdvBTZxsKza9JUtb008-34" target="mNdvBTZxsKza9JUtb008-37" edge="1">
          <mxGeometry width="50" height="50" relative="1" as="geometry">
            <mxPoint x="420" y="210" as="sourcePoint" />
            <mxPoint x="470" y="160" as="targetPoint" />
          </mxGeometry>
        </mxCell>
        <mxCell id="mNdvBTZxsKza9JUtb008-44" value="" style="endArrow=none;html=1;rounded=0;entryX=0.5;entryY=1;entryDx=0;entryDy=0;exitX=0.5;exitY=0;exitDx=0;exitDy=0;labelBackgroundColor=#F1FAEE;strokeColor=#457B9D;fontColor=#1D3557;" parent="1" source="mNdvBTZxsKza9JUtb008-34" target="mNdvBTZxsKza9JUtb008-38" edge="1">
          <mxGeometry width="50" height="50" relative="1" as="geometry">
            <mxPoint x="680" y="250" as="sourcePoint" />
            <mxPoint x="580" y="170" as="targetPoint" />
          </mxGeometry>
        </mxCell>
        <mxCell id="mNdvBTZxsKza9JUtb008-45" value="" style="endArrow=none;html=1;rounded=0;entryX=0.5;entryY=0;entryDx=0;entryDy=0;exitX=0.5;exitY=1;exitDx=0;exitDy=0;labelBackgroundColor=#F1FAEE;strokeColor=#457B9D;fontColor=#1D3557;" parent="1" source="mNdvBTZxsKza9JUtb008-39" target="mNdvBTZxsKza9JUtb008-34" edge="1">
          <mxGeometry width="50" height="50" relative="1" as="geometry">
            <mxPoint x="690" y="260" as="sourcePoint" />
            <mxPoint x="590" y="180" as="targetPoint" />
          </mxGeometry>
        </mxCell>
        <mxCell id="mNdvBTZxsKza9JUtb008-46" value="" style="endArrow=none;html=1;rounded=0;entryX=0.5;entryY=1;entryDx=0;entryDy=0;exitX=0.5;exitY=0;exitDx=0;exitDy=0;labelBackgroundColor=#F1FAEE;strokeColor=#457B9D;fontColor=#1D3557;" parent="1" source="mNdvBTZxsKza9JUtb008-34" target="mNdvBTZxsKza9JUtb008-40" edge="1">
          <mxGeometry width="50" height="50" relative="1" as="geometry">
            <mxPoint x="700" y="270" as="sourcePoint" />
            <mxPoint x="600" y="190" as="targetPoint" />
          </mxGeometry>
        </mxCell>
        <mxCell id="mNdvBTZxsKza9JUtb008-47" value="Merkozes" style="rounded=0;whiteSpace=wrap;html=1;fillColor=#d5e8d4;strokeColor=#82b366;" parent="1" vertex="1">
          <mxGeometry x="610" y="480" width="120" height="60" as="geometry" />
        </mxCell>
        <mxCell id="mNdvBTZxsKza9JUtb008-48" value="Jatszik" style="rhombus;whiteSpace=wrap;html=1;fillColor=#d5e8d4;strokeColor=#82b366;" parent="1" vertex="1">
          <mxGeometry x="630" y="350" width="80" height="80" as="geometry" />
        </mxCell>
        <mxCell id="mNdvBTZxsKza9JUtb008-51" value="" style="endArrow=none;html=1;rounded=0;entryX=0.5;entryY=1;entryDx=0;entryDy=0;exitX=0.5;exitY=0;exitDx=0;exitDy=0;labelBackgroundColor=#F1FAEE;strokeColor=#457B9D;fontColor=#1D3557;" parent="1" source="mNdvBTZxsKza9JUtb008-47" target="mNdvBTZxsKza9JUtb008-48" edge="1">
          <mxGeometry width="50" height="50" relative="1" as="geometry">
            <mxPoint x="460" y="470" as="sourcePoint" />
            <mxPoint x="510" y="420" as="targetPoint" />
          </mxGeometry>
        </mxCell>
        <mxCell id="mNdvBTZxsKza9JUtb008-52" value="Pont" style="ellipse;whiteSpace=wrap;html=1;fillColor=#d5e8d4;strokeColor=#82b366;" parent="1" vertex="1">
          <mxGeometry x="770" y="365" width="80" height="50" as="geometry" />
        </mxCell>
        <mxCell id="mNdvBTZxsKza9JUtb008-53" value="" style="endArrow=none;html=1;rounded=0;entryX=0;entryY=0.5;entryDx=0;entryDy=0;exitX=1;exitY=0.5;exitDx=0;exitDy=0;labelBackgroundColor=#F1FAEE;strokeColor=#457B9D;fontColor=#1D3557;" parent="1" source="mNdvBTZxsKza9JUtb008-48" target="mNdvBTZxsKza9JUtb008-52" edge="1">
          <mxGeometry width="50" height="50" relative="1" as="geometry">
            <mxPoint x="460" y="500" as="sourcePoint" />
            <mxPoint x="510" y="450" as="targetPoint" />
          </mxGeometry>
        </mxCell>
        <mxCell id="mNdvBTZxsKza9JUtb008-56" value="MerkozesID" style="ellipse;whiteSpace=wrap;html=1;fontStyle=4;fillColor=#d5e8d4;strokeColor=#82b366;" parent="1" vertex="1">
          <mxGeometry x="520" y="630" width="80" height="50" as="geometry" />
        </mxCell>
        <mxCell id="mNdvBTZxsKza9JUtb008-57" value="HazaiGolok" style="ellipse;whiteSpace=wrap;html=1;fillColor=#d5e8d4;strokeColor=#82b366;" parent="1" vertex="1">
          <mxGeometry x="610" y="630" width="80" height="50" as="geometry" />
        </mxCell>
        <mxCell id="mNdvBTZxsKza9JUtb008-58" value="VendegGolok" style="ellipse;whiteSpace=wrap;html=1;fillColor=#d5e8d4;strokeColor=#82b366;" parent="1" vertex="1">
          <mxGeometry x="700" y="630" width="80" height="50" as="geometry" />
        </mxCell>
        <mxCell id="mNdvBTZxsKza9JUtb008-59" value="Idopont" style="ellipse;whiteSpace=wrap;html=1;fillColor=#d5e8d4;strokeColor=#82b366;" parent="1" vertex="1">
          <mxGeometry x="790" y="630" width="80" height="50" as="geometry" />
        </mxCell>
        <mxCell id="mNdvBTZxsKza9JUtb008-60" value="" style="endArrow=none;html=1;rounded=0;entryX=0.5;entryY=1;entryDx=0;entryDy=0;exitX=0.5;exitY=0;exitDx=0;exitDy=0;labelBackgroundColor=#F1FAEE;strokeColor=#457B9D;fontColor=#1D3557;" parent="1" source="mNdvBTZxsKza9JUtb008-56" target="mNdvBTZxsKza9JUtb008-47" edge="1">
          <mxGeometry width="50" height="50" relative="1" as="geometry">
            <mxPoint x="460" y="560" as="sourcePoint" />
            <mxPoint x="510" y="510" as="targetPoint" />
          </mxGeometry>
        </mxCell>
        <mxCell id="mNdvBTZxsKza9JUtb008-61" value="" style="endArrow=none;html=1;rounded=0;entryX=0.5;entryY=1;entryDx=0;entryDy=0;exitX=0.5;exitY=0;exitDx=0;exitDy=0;labelBackgroundColor=#F1FAEE;strokeColor=#457B9D;fontColor=#1D3557;" parent="1" source="mNdvBTZxsKza9JUtb008-57" target="mNdvBTZxsKza9JUtb008-47" edge="1">
          <mxGeometry width="50" height="50" relative="1" as="geometry">
            <mxPoint x="570" y="639.9999999999998" as="sourcePoint" />
            <mxPoint x="680" y="550" as="targetPoint" />
          </mxGeometry>
        </mxCell>
        <mxCell id="mNdvBTZxsKza9JUtb008-62" value="" style="endArrow=none;html=1;rounded=0;entryX=0.5;entryY=1;entryDx=0;entryDy=0;exitX=0.5;exitY=0;exitDx=0;exitDy=0;labelBackgroundColor=#F1FAEE;strokeColor=#457B9D;fontColor=#1D3557;" parent="1" source="mNdvBTZxsKza9JUtb008-58" target="mNdvBTZxsKza9JUtb008-47" edge="1">
          <mxGeometry width="50" height="50" relative="1" as="geometry">
            <mxPoint x="580" y="649.9999999999998" as="sourcePoint" />
            <mxPoint x="690" y="560" as="targetPoint" />
          </mxGeometry>
        </mxCell>
        <mxCell id="mNdvBTZxsKza9JUtb008-63" value="" style="endArrow=none;html=1;rounded=0;entryX=0.5;entryY=1;entryDx=0;entryDy=0;exitX=0.5;exitY=0;exitDx=0;exitDy=0;labelBackgroundColor=#F1FAEE;strokeColor=#457B9D;fontColor=#1D3557;" parent="1" source="mNdvBTZxsKza9JUtb008-59" target="mNdvBTZxsKza9JUtb008-47" edge="1">
          <mxGeometry width="50" height="50" relative="1" as="geometry">
            <mxPoint x="590" y="659.9999999999998" as="sourcePoint" />
            <mxPoint x="700" y="570" as="targetPoint" />
          </mxGeometry>
        </mxCell>
        <mxCell id="mNdvBTZxsKza9JUtb008-64" value="stad_m" style="rhombus;whiteSpace=wrap;html=1;rotation=0;fillColor=#d5e8d4;strokeColor=#82b366;" parent="1" vertex="1">
          <mxGeometry x="1127" y="470" width="80" height="80" as="geometry" />
        </mxCell>
        <mxCell id="mNdvBTZxsKza9JUtb008-65" value="stad_cs" style="rhombus;whiteSpace=wrap;html=1;rotation=0;direction=south;fillColor=#d5e8d4;strokeColor=#82b366;" parent="1" vertex="1">
          <mxGeometry x="930" y="230" width="80" height="80" as="geometry" />
        </mxCell>
        <mxCell id="mNdvBTZxsKza9JUtb008-66" value="Stadion" style="rounded=0;whiteSpace=wrap;html=1;fillColor=#d5e8d4;strokeColor=#82b366;" parent="1" vertex="1">
          <mxGeometry x="1107" y="240" width="120" height="60" as="geometry" />
        </mxCell>
        <mxCell id="mNdvBTZxsKza9JUtb008-71" value="StadionID" style="ellipse;whiteSpace=wrap;html=1;fontStyle=0;fillColor=#d5e8d4;strokeColor=#82b366;" parent="1" vertex="1">
          <mxGeometry x="1317" y="130" width="80" height="50" as="geometry" />
        </mxCell>
        <mxCell id="mNdvBTZxsKza9JUtb008-72" value="Cim" style="ellipse;whiteSpace=wrap;html=1;fontStyle=0;fillColor=#d5e8d4;strokeColor=#82b366;" parent="1" vertex="1">
          <mxGeometry x="1317" y="190" width="80" height="50" as="geometry" />
        </mxCell>
        <mxCell id="mNdvBTZxsKza9JUtb008-73" value="Snev" style="ellipse;whiteSpace=wrap;html=1;fontStyle=0;fillColor=#d5e8d4;strokeColor=#82b366;" parent="1" vertex="1">
          <mxGeometry x="1317" y="250" width="80" height="50" as="geometry" />
        </mxCell>
        <mxCell id="mNdvBTZxsKza9JUtb008-74" value="Ferohely" style="ellipse;whiteSpace=wrap;html=1;fontStyle=0;fillColor=#d5e8d4;strokeColor=#82b366;" parent="1" vertex="1">
          <mxGeometry x="1317" y="310" width="80" height="50" as="geometry" />
        </mxCell>
        <mxCell id="mNdvBTZxsKza9JUtb008-75" value="Varos" style="ellipse;whiteSpace=wrap;html=1;fontStyle=0;fillColor=#d5e8d4;strokeColor=#82b366;" parent="1" vertex="1">
          <mxGeometry x="1487" y="140" width="80" height="50" as="geometry" />
        </mxCell>
        <mxCell id="mNdvBTZxsKza9JUtb008-76" value="Utca" style="ellipse;whiteSpace=wrap;html=1;fontStyle=0;fillColor=#d5e8d4;strokeColor=#82b366;" parent="1" vertex="1">
          <mxGeometry x="1487" y="195" width="80" height="50" as="geometry" />
        </mxCell>
        <mxCell id="mNdvBTZxsKza9JUtb008-77" value="Hazszam" style="ellipse;whiteSpace=wrap;html=1;fontStyle=0;fillColor=#d5e8d4;strokeColor=#82b366;" parent="1" vertex="1">
          <mxGeometry x="1487" y="250" width="80" height="50" as="geometry" />
        </mxCell>
        <mxCell id="mNdvBTZxsKza9JUtb008-78" value="" style="endArrow=none;html=1;rounded=0;entryX=0;entryY=0.5;entryDx=0;entryDy=0;exitX=1;exitY=0.5;exitDx=0;exitDy=0;labelBackgroundColor=#F1FAEE;strokeColor=#457B9D;fontColor=#1D3557;" parent="1" source="mNdvBTZxsKza9JUtb008-66" target="mNdvBTZxsKza9JUtb008-71" edge="1">
          <mxGeometry width="50" height="50" relative="1" as="geometry">
            <mxPoint x="1047" y="230" as="sourcePoint" />
            <mxPoint x="1097" y="180" as="targetPoint" />
          </mxGeometry>
        </mxCell>
        <mxCell id="mNdvBTZxsKza9JUtb008-79" value="" style="endArrow=none;html=1;rounded=0;entryX=0;entryY=0.5;entryDx=0;entryDy=0;exitX=1;exitY=0.5;exitDx=0;exitDy=0;labelBackgroundColor=#F1FAEE;strokeColor=#457B9D;fontColor=#1D3557;" parent="1" source="mNdvBTZxsKza9JUtb008-66" target="mNdvBTZxsKza9JUtb008-72" edge="1">
          <mxGeometry width="50" height="50" relative="1" as="geometry">
            <mxPoint x="1237" y="280" as="sourcePoint" />
            <mxPoint x="1327" y="165" as="targetPoint" />
          </mxGeometry>
        </mxCell>
        <mxCell id="mNdvBTZxsKza9JUtb008-80" value="" style="endArrow=none;html=1;rounded=0;entryX=0;entryY=0.5;entryDx=0;entryDy=0;exitX=1;exitY=0.5;exitDx=0;exitDy=0;labelBackgroundColor=#F1FAEE;strokeColor=#457B9D;fontColor=#1D3557;" parent="1" source="mNdvBTZxsKza9JUtb008-66" target="mNdvBTZxsKza9JUtb008-73" edge="1">
          <mxGeometry width="50" height="50" relative="1" as="geometry">
            <mxPoint x="1247" y="290" as="sourcePoint" />
            <mxPoint x="1337" y="175" as="targetPoint" />
          </mxGeometry>
        </mxCell>
        <mxCell id="mNdvBTZxsKza9JUtb008-81" value="" style="endArrow=none;html=1;rounded=0;entryX=0;entryY=0.5;entryDx=0;entryDy=0;exitX=1;exitY=0.5;exitDx=0;exitDy=0;labelBackgroundColor=#F1FAEE;strokeColor=#457B9D;fontColor=#1D3557;" parent="1" source="mNdvBTZxsKza9JUtb008-66" target="mNdvBTZxsKza9JUtb008-74" edge="1">
          <mxGeometry width="50" height="50" relative="1" as="geometry">
            <mxPoint x="1257" y="300" as="sourcePoint" />
            <mxPoint x="1347" y="185" as="targetPoint" />
          </mxGeometry>
        </mxCell>
        <mxCell id="mNdvBTZxsKza9JUtb008-82" value="" style="endArrow=none;html=1;rounded=0;entryX=0;entryY=0.5;entryDx=0;entryDy=0;exitX=1;exitY=0.5;exitDx=0;exitDy=0;labelBackgroundColor=#F1FAEE;strokeColor=#457B9D;fontColor=#1D3557;" parent="1" source="mNdvBTZxsKza9JUtb008-72" target="mNdvBTZxsKza9JUtb008-75" edge="1">
          <mxGeometry width="50" height="50" relative="1" as="geometry">
            <mxPoint x="1267" y="310" as="sourcePoint" />
            <mxPoint x="1357" y="195" as="targetPoint" />
          </mxGeometry>
        </mxCell>
        <mxCell id="mNdvBTZxsKza9JUtb008-83" value="" style="endArrow=none;html=1;rounded=0;entryX=0;entryY=0.5;entryDx=0;entryDy=0;exitX=1;exitY=0.5;exitDx=0;exitDy=0;labelBackgroundColor=#F1FAEE;strokeColor=#457B9D;fontColor=#1D3557;" parent="1" source="mNdvBTZxsKza9JUtb008-72" target="mNdvBTZxsKza9JUtb008-76" edge="1">
          <mxGeometry width="50" height="50" relative="1" as="geometry">
            <mxPoint x="1277" y="320" as="sourcePoint" />
            <mxPoint x="1367" y="205" as="targetPoint" />
          </mxGeometry>
        </mxCell>
        <mxCell id="mNdvBTZxsKza9JUtb008-84" value="" style="endArrow=none;html=1;rounded=0;entryX=0;entryY=0.5;entryDx=0;entryDy=0;exitX=1;exitY=0.5;exitDx=0;exitDy=0;labelBackgroundColor=#F1FAEE;strokeColor=#457B9D;fontColor=#1D3557;" parent="1" source="mNdvBTZxsKza9JUtb008-72" target="mNdvBTZxsKza9JUtb008-77" edge="1">
          <mxGeometry width="50" height="50" relative="1" as="geometry">
            <mxPoint x="1287" y="330" as="sourcePoint" />
            <mxPoint x="1377" y="215" as="targetPoint" />
          </mxGeometry>
        </mxCell>
        <mxCell id="0m9VBZmwMlCMYFOyTgQR-1" value="" style="edgeStyle=entityRelationEdgeStyle;fontSize=12;html=1;endArrow=ERoneToMany;rounded=0;exitX=0;exitY=0.5;exitDx=0;exitDy=0;entryX=1;entryY=0.5;entryDx=0;entryDy=0;" parent="1" source="mNdvBTZxsKza9JUtb008-31" target="mNdvBTZxsKza9JUtb008-1" edge="1">
          <mxGeometry width="100" height="100" relative="1" as="geometry">
            <mxPoint x="580" y="430" as="sourcePoint" />
            <mxPoint x="250" y="270" as="targetPoint" />
          </mxGeometry>
        </mxCell>
        <mxCell id="0m9VBZmwMlCMYFOyTgQR-6" value="" style="edgeStyle=entityRelationEdgeStyle;fontSize=12;html=1;endArrow=ERone;endFill=1;rounded=0;entryX=0;entryY=0.5;entryDx=0;entryDy=0;exitX=1;exitY=0.5;exitDx=0;exitDy=0;" parent="1" source="mNdvBTZxsKza9JUtb008-31" target="mNdvBTZxsKza9JUtb008-34" edge="1">
          <mxGeometry width="100" height="100" relative="1" as="geometry">
            <mxPoint x="460" y="430" as="sourcePoint" />
            <mxPoint x="560" y="330" as="targetPoint" />
          </mxGeometry>
        </mxCell>
        <mxCell id="0m9VBZmwMlCMYFOyTgQR-7" value="" style="fontSize=12;html=1;endArrow=ERone;endFill=1;rounded=0;exitX=0.5;exitY=0;exitDx=0;exitDy=0;entryX=0.5;entryY=1;entryDx=0;entryDy=0;" parent="1" source="mNdvBTZxsKza9JUtb008-3" target="mNdvBTZxsKza9JUtb008-1" edge="1">
          <mxGeometry width="100" height="100" relative="1" as="geometry">
            <mxPoint x="460" y="430" as="sourcePoint" />
            <mxPoint x="560" y="330" as="targetPoint" />
          </mxGeometry>
        </mxCell>
        <mxCell id="0m9VBZmwMlCMYFOyTgQR-8" value="" style="fontSize=12;html=1;endArrow=ERone;endFill=1;rounded=0;exitX=0.5;exitY=1;exitDx=0;exitDy=0;entryX=0.5;entryY=0;entryDx=0;entryDy=0;" parent="1" source="mNdvBTZxsKza9JUtb008-3" edge="1" target="mNdvBTZxsKza9JUtb008-2">
          <mxGeometry width="100" height="100" relative="1" as="geometry">
            <mxPoint x="460" y="600" as="sourcePoint" />
            <mxPoint x="150" y="610" as="targetPoint" />
          </mxGeometry>
        </mxCell>
        <mxCell id="0m9VBZmwMlCMYFOyTgQR-9" value="" style="fontSize=12;html=1;endArrow=ERmany;rounded=0;exitX=0.5;exitY=0;exitDx=0;exitDy=0;entryX=0.5;entryY=1;entryDx=0;entryDy=0;" parent="1" source="mNdvBTZxsKza9JUtb008-48" target="mNdvBTZxsKza9JUtb008-34" edge="1">
          <mxGeometry width="100" height="100" relative="1" as="geometry">
            <mxPoint x="460" y="430" as="sourcePoint" />
            <mxPoint x="560" y="330" as="targetPoint" />
          </mxGeometry>
        </mxCell>
        <mxCell id="0m9VBZmwMlCMYFOyTgQR-10" value="" style="fontSize=12;html=1;endArrow=ERmany;rounded=0;exitX=0.5;exitY=1;exitDx=0;exitDy=0;entryX=0.5;entryY=0;entryDx=0;entryDy=0;" parent="1" source="mNdvBTZxsKza9JUtb008-48" edge="1" target="mNdvBTZxsKza9JUtb008-47">
          <mxGeometry width="100" height="100" relative="1" as="geometry">
            <mxPoint x="680" y="360" as="sourcePoint" />
            <mxPoint x="670" y="540" as="targetPoint" />
          </mxGeometry>
        </mxCell>
        <mxCell id="0m9VBZmwMlCMYFOyTgQR-11" value="" style="edgeStyle=entityRelationEdgeStyle;fontSize=12;html=1;endArrow=ERone;endFill=1;rounded=0;entryX=1;entryY=0.5;entryDx=0;entryDy=0;exitX=0.5;exitY=1;exitDx=0;exitDy=0;" parent="1" source="mNdvBTZxsKza9JUtb008-65" target="mNdvBTZxsKza9JUtb008-34" edge="1">
          <mxGeometry width="100" height="100" relative="1" as="geometry">
            <mxPoint x="840" y="310" as="sourcePoint" />
            <mxPoint x="830" y="330" as="targetPoint" />
          </mxGeometry>
        </mxCell>
        <mxCell id="0m9VBZmwMlCMYFOyTgQR-12" value="" style="edgeStyle=entityRelationEdgeStyle;fontSize=12;html=1;endArrow=ERone;endFill=1;rounded=0;entryX=0;entryY=0.5;entryDx=0;entryDy=0;exitX=0.5;exitY=0;exitDx=0;exitDy=0;" parent="1" source="mNdvBTZxsKza9JUtb008-65" edge="1" target="mNdvBTZxsKza9JUtb008-66">
          <mxGeometry width="100" height="100" relative="1" as="geometry">
            <mxPoint x="900" y="430" as="sourcePoint" />
            <mxPoint x="1210" y="269.9999999999999" as="targetPoint" />
          </mxGeometry>
        </mxCell>
        <mxCell id="0m9VBZmwMlCMYFOyTgQR-13" value="" style="fontSize=12;html=1;endArrow=ERone;endFill=1;rounded=0;entryX=0.5;entryY=1;entryDx=0;entryDy=0;exitX=0.5;exitY=0;exitDx=0;exitDy=0;" parent="1" source="mNdvBTZxsKza9JUtb008-64" target="mNdvBTZxsKza9JUtb008-66" edge="1">
          <mxGeometry width="100" height="100" relative="1" as="geometry">
            <mxPoint x="797" y="520" as="sourcePoint" />
            <mxPoint x="897" y="420" as="targetPoint" />
          </mxGeometry>
        </mxCell>
        <mxCell id="0m9VBZmwMlCMYFOyTgQR-14" value="" style="edgeStyle=entityRelationEdgeStyle;fontSize=12;html=1;endArrow=ERmany;rounded=0;exitX=0;exitY=0.5;exitDx=0;exitDy=0;entryX=1;entryY=0.5;entryDx=0;entryDy=0;" parent="1" source="mNdvBTZxsKza9JUtb008-64" target="mNdvBTZxsKza9JUtb008-47" edge="1">
          <mxGeometry width="100" height="100" relative="1" as="geometry">
            <mxPoint x="900" y="390" as="sourcePoint" />
            <mxPoint x="1000" y="290" as="targetPoint" />
          </mxGeometry>
        </mxCell>
      </root>
    </mxGraphModel>
  </diagram>
</mxfile>
